<?xml version="1.0" encoding="UTF-8" standalone="no"?>
<svg
   xmlns:dc="http://purl.org/dc/elements/1.1/"
   xmlns:cc="http://creativecommons.org/ns#"
   xmlns:rdf="http://www.w3.org/1999/02/22-rdf-syntax-ns#"
   xmlns:svg="http://www.w3.org/2000/svg"
   xmlns="http://www.w3.org/2000/svg"
   xmlns:sodipodi="http://sodipodi.sourceforge.net/DTD/sodipodi-0.dtd"
   xmlns:inkscape="http://www.inkscape.org/namespaces/inkscape"
   id="svg"
   version="1.1"
   width="400"
   height="390.20979020979024"
   viewBox="0, 0, 400,390.20979020979024"
   sodipodi:docname="NHI-logo.svg"
   inkscape:version="1.0 (4035a4fb49, 2020-05-01)">
  <metadata
     id="metadata13">
    <rdf:RDF>
      <cc:Work
         rdf:about="">
        <dc:format>image/svg+xml</dc:format>
        <dc:type
           rdf:resource="http://purl.org/dc/dcmitype/StillImage" />
      </cc:Work>
    </rdf:RDF>
  </metadata>
  <defs
     id="defs11" />
  <sodipodi:namedview
     inkscape:document-rotation="0"
     pagecolor="#ffffff"
     bordercolor="#666666"
     borderopacity="1"
     objecttolerance="10"
     gridtolerance="10"
     guidetolerance="10"
     inkscape:pageopacity="0"
     inkscape:pageshadow="2"
     inkscape:window-width="1827"
     inkscape:window-height="1057"
     id="namedview9"
     showgrid="false"
     inkscape:zoom="0.98793014"
     inkscape:cx="118.90577"
     inkscape:cy="260.41027"
     inkscape:window-x="1912"
     inkscape:window-y="-8"
     inkscape:window-maximized="1"
     inkscape:current-layer="svg" />
  <rect
     y="0.77038938"
     x="0.25922573"
     height="389.68121"
     width="399.6907"
     id="rect836"
     style="fill:#ffffff;fill-opacity:1;fill-rule:evenodd;stroke:#f16422;stroke-width:0" />
  <path
     id="path47"
     d="m 358.33206,298.58497 c -2.33688,1.4067 -4.70466,3.71352 -4.19562,6.70081 -0.0741,17.7021 -0.1481,35.40422 -0.22214,53.10633 0.90399,2.65247 3.24183,5.11597 6.25018,4.849 3.44373,0.0171 6.93525,-2.93115 6.54846,-6.5565 0.85464,-15.5553 0.605,-31.14727 0.21418,-46.71261 -0.18385,-2.8488 -0.0627,-5.82229 -0.94645,-8.55138 -1.43303,-2.64243 -4.90382,-3.38229 -7.64861,-2.83565 z"
     style="fill:#f16422;fill-opacity:1;stroke:#f16422;stroke-width:1.09867;stroke-opacity:1" />
  <path
     d="m 280.73307,299.44413 c -3.02134,1.99519 -2.90378,0.71963 -2.90378,31.42413 v 27.65459 l 1.16568,1.9831 c 1.23711,2.10395 2.01497,2.50277 4.89128,2.51266 5.92402,0.0198 6.80516,-1.91498 6.80516,-14.93091 v -10.00558 l 1.03494,-0.83828 c 1.30082,-1.05363 26.0824,-1.08329 27.13492,-0.0319 0.4142,0.4142 0.61196,3.27074 0.77127,11.1482 0.18458,9.09917 0.32411,10.81199 0.99429,12.15896 2.01057,4.03871 9.43317,3.51135 11.2339,-0.79873 0.91519,-2.18965 0.95144,-55.55969 0.0396,-57.74274 -1.79742,-4.30019 -8.28837,-4.79349 -10.9812,-0.83389 -1.05363,1.54912 -1.0756,1.75348 -1.28654,12.02274 -0.17799,8.65531 -0.3252,10.51535 -0.85806,10.85155 -1.06791,0.67348 -26.80642,0.53944 -27.37224,-0.14393 -0.28785,-0.34608 -0.5746,-4.41335 -0.74819,-10.61095 -0.31203,-11.12292 -0.50319,-11.99416 -2.9763,-13.59603 -2.43245,-1.57439 -4.7847,-1.6502 -6.94468,-0.22302"
     id="path45"
     style="fill:#f16422;fill-opacity:1;stroke:#f16422;stroke-width:1.09867;stroke-opacity:1" />
  <path
     id="path43"
     d="m 206.87175,298.61573 c -3.71075,0.76912 -4.3835,5.06425 -4.19866,8.23399 -0.40978,14.66973 -0.0173,29.34762 0.018,44.01969 0.34954,3.68928 -0.16349,7.85542 1.68271,11.14833 2.63213,1.65354 6.95848,1.60481 9.26103,-0.62775 2.28053,-3.01548 1.46533,-7.07368 1.74948,-10.59918 -0.0628,-8.25219 -0.29034,-16.52598 0.30562,-24.76314 0.46636,-2.68382 3.75985,1.40641 4.63445,2.57609 6.97424,8.24257 13.06265,17.19291 19.76593,25.6542 2.70779,3.84452 5.72227,8.59114 10.87099,9.07729 3.53394,-0.0145 6.18774,-3.89197 5.62681,-7.22389 -0.0373,-16.78363 0.20202,-33.5772 -0.17603,-50.35913 0.45723,-3.68208 -2.10861,-7.55947 -6.10046,-7.26241 -3.67105,-0.13123 -6.77602,2.78866 -6.33187,6.54932 -0.59613,10.23347 0.28725,20.52086 -0.7205,30.73051 -1.49406,3.61019 -4.31777,-1.97463 -5.4871,-3.43538 -5.54713,-7.57441 -11.38453,-14.93207 -16.88221,-22.54313 -2.63224,-2.19379 -3.0067,-6.13994 -6.01585,-8.00384 -2.22391,-1.71489 -5.06131,-3.69989 -8.00231,-3.17157 z"
     style="fill:#f16422;fill-opacity:1;stroke:#f16422;stroke-width:1.09867;stroke-opacity:1" />
  <path
     d="m 217.59037,48.241173 c -1.54143,0.425184 -3.85852,1.751277 -3.85852,2.207225 0,0.214241 -0.43288,0.526263 -0.96024,0.69326 -0.92398,0.293345 -4.68253,2.69943 -9.04534,5.787788 -1.14042,0.807522 -2.49838,1.75787 -3.01804,2.111642 -2.24788,1.531544 -4.56498,3.382801 -7.77089,6.208578 -1.88642,1.663384 -4.39467,3.775026 -5.57355,4.693513 -5.16923,4.023326 -17.58859,17.585295 -19.52994,21.325164 -0.44935,0.864652 -1.35795,1.957828 -2.02045,2.429157 -0.66249,0.471328 -1.47771,1.404099 -1.8117,2.073188 -0.33509,0.667991 -1.2437,2.131418 -2.02156,3.25206 -0.77785,1.120642 -1.41398,2.207222 -1.41398,2.413772 0,0.20545 -0.30104,0.62515 -0.66909,0.93058 -0.72183,0.59877 -8.49821,16.20976 -8.95964,17.98521 -0.15382,0.58998 -0.73501,2.2292 -1.29204,3.64429 -1.51286,3.84534 -2.79831,8.18289 -2.79831,9.44305 0,0.61416 -0.37135,2.02046 -0.824,3.12571 -0.88553,2.15779 -1.51616,5.42304 -2.17098,11.2273 -0.22522,2.00398 -0.61964,5.2846 -0.87453,7.28858 -0.63504,4.99015 -0.91629,24.81783 -0.39003,27.57658 0.23182,1.22172 0.61196,4.53641 0.84378,7.36658 0.23182,2.82907 0.69546,6.59201 1.03055,8.36087 2.41597,12.74566 3.09935,17.10078 3.96949,25.29575 0.89872,8.45756 1.20195,24.46296 0.55703,29.36962 -1.53045,11.62612 -3.02354,19.74858 -4.33425,23.58073 -0.24171,0.70754 -0.73501,2.25117 -1.09647,3.43005 -0.36147,1.17887 -0.81302,2.33687 -1.00419,2.57198 -0.19007,0.23622 -0.48671,1.20084 -0.657,2.1446 -0.17139,0.94266 -0.7482,2.58627 -1.28215,3.65088 -0.53285,1.0657 -1.20194,2.79941 -1.4854,3.85193 -0.28345,1.05362 -1.04923,2.59396 -1.70184,3.42346 -0.65261,0.82839 -1.71941,2.56868 -2.36982,3.86511 -0.65042,1.29753 -1.35027,2.42256 -1.55682,2.50167 -0.20545,0.078 -0.37355,0.32301 -0.37355,0.54494 0,0.38673 -2.09076,3.80249 -2.59725,4.24196 -0.13514,0.11866 -0.84818,1.08329 -1.58319,2.1435 -0.73501,1.06132 -2.04132,2.70163 -2.90267,3.64539 -0.86136,0.94266 -1.83808,2.23579 -2.17207,2.87192 -0.3329,0.63723 -0.85916,1.31181 -1.16789,1.50078 -0.30873,0.18897 -0.86135,0.78225 -1.22831,1.3195 -1.11076,1.62823 -8.36526,8.94207 -10.97789,11.0669 -3.16856,2.57637 -6.78758,5.70538 -8.0148,6.92929 -0.53175,0.52956 -1.10306,0.96464 -1.26896,0.96464 -0.1648,0 -1.01078,0.67678 -1.879825,1.50408 -0.869048,0.82729 -2.351152,1.89739 -3.29381,2.37641 -1.39421,0.70865 -7.217156,4.50674 -9.003591,5.87239 -0.236214,0.18128 -0.911896,0.5779 -1.500782,0.88223 -2.823579,1.45903 -3.482781,1.93805 -4.69681,3.41027 -0.718529,0.87125 -1.306317,1.8172 -1.306317,2.10066 0,0.28456 -0.385633,0.63943 -0.856961,0.78884 -1.839173,0.58339 -1.182168,3.91565 1.374434,6.97545 l 2.232495,2.67196 2.376421,-0.01 c 1.697443,-0.006 2.684049,-0.2494 3.448722,-0.84818 0.589985,-0.46144 1.195352,-0.84268 1.34477,-0.84817 0.56142,-0.0187 5.515318,-3.52563 5.515318,-3.90357 0,-0.21644 0.312022,-0.39332 0.693261,-0.39332 0.381237,0 1.586477,-0.63504 2.679653,-1.41069 1.092077,-0.77566 2.530232,-1.68317 3.196032,-2.01716 0.66469,-0.334 1.66448,-1.06352 2.22261,-1.62163 0.55702,-0.55703 2.87851,-2.43356 5.15715,-4.16836 2.27974,-1.73589 4.77042,-3.72558 5.53619,-4.42214 0.76468,-0.69655 2.23359,-1.8194 3.26305,-2.49508 2.7983,-1.83697 12.47978,-11.65797 15.29896,-15.51869 2.36543,-3.23998 6.848,-8.9113 8.25869,-10.45164 0.83939,-0.91519 4.05738,-6.32834 6.44809,-10.84496 0.99759,-1.88641 2.01606,-3.68494 2.26326,-3.99696 0.46034,-0.58229 1.44585,-2.79831 3.98048,-8.95525 1.94244,-4.71878 4.68472,-13.87838 5.94159,-19.84745 0.32302,-1.53265 0.79655,-3.32897 1.05254,-3.99366 0.25488,-0.6636 0.46693,-2.49618 0.47132,-4.07277 0.004,-1.57659 0.27906,-4.02333 0.61196,-5.43841 0.8284,-3.51574 1.28545,-21.66355 0.71304,-28.29732 -0.63613,-7.38195 -1.60516,-15.88016 -2.149,-18.86524 -0.55153,-3.02684 -3.00705,-18.2478 -3.49267,-21.65147 -2.34565,-16.43389 -0.92617,-41.02759 3.08067,-53.37993 0.68777,-2.12152 1.5656,-4.82315 1.94904,-6.00203 0.38343,-1.17887 1.03934,-2.91586 1.45573,-3.85852 0.4175,-0.94376 1.19097,-2.9697 1.71942,-4.50234 0.52846,-1.53265 1.31621,-3.18504 1.74908,-3.67176 0.43287,-0.48671 0.78774,-1.26457 0.78774,-1.7282 0,-0.85916 2.81919,-5.94491 5.44391,-9.82101 0.79873,-1.17887 2.61593,-3.8794 4.03871,-6.00203 4.23427,-6.317344 18.52026,-21.222985 20.34075,-21.222985 0.15162,0 1.55901,-1.250285 3.12572,-2.777435 1.5678,-1.528249 3.71899,-3.35094 4.78031,-4.051891 1.06131,-0.700951 2.89389,-1.971012 4.07276,-2.82248 1.17997,-0.851469 3.49486,-2.437947 5.14506,-3.525629 1.65131,-1.087682 4.11672,-2.71591 5.48017,-3.617917 1.36345,-0.903106 2.61703,-1.646904 2.78732,-1.654595 0.8295,-0.03626 2.57418,-2.16218 3.45641,-4.212297 2.49508,-5.800971 -2.35774,-10.535132 -8.93657,-8.717937"
     id="path41"
     style="fill:#8bc53f;fill-opacity:1;stroke:#8bc53f;stroke-width:1.09867;stroke-opacity:1" />
  <path
     id="path39"
     d="m 261.10975,29.549523 c -6.1619,1.828349 -12.34263,4.079843 -18.21139,6.519115 -6.01705,3.973113 -2.62125,14.697188 4.95925,12.821507 6.33048,-2.294864 12.7346,-4.447647 18.94914,-7.018188 5.47125,-2.730146 4.24362,-11.400068 -1.78337,-12.406143 -1.27672,-0.336048 -2.6571,-0.346805 -3.91363,0.08371 z"
     style="fill:#8bc53f;fill-opacity:1;stroke:#8bc53f;stroke-width:1.09867;stroke-opacity:1" />
  <path
     id="path0"
     d="m 288.50615,21.441346 c -1.45256,0.701842 -2.93509,1.861412 -3.1714,3.562644 -0.37045,2.154744 -0.38157,4.494551 0.62175,6.488784 0.92389,1.754334 2.79844,3.048903 4.81855,3.005172 2.62044,0.02774 5.08178,-1.484847 6.61544,-3.546712 1.01808,-1.428566 1.25186,-3.316868 0.72637,-4.976868 -0.8491,-2.942578 -3.68321,-5.320535 -6.80232,-5.27861 -0.97769,0.0156 -1.95597,0.262355 -2.80839,0.74559 z"
     style="fill:#8bc53f;fill-opacity:1;stroke:#8bc53f;stroke-width:1.09867;stroke-opacity:1" />
  <path
     style="stroke-width:1.09867"
     fill-rule="evenodd"
     fill="#15aae4"
     stroke="none"
     d="m 99.402572,162.56866 c -3.301499,0.27906 -6.871074,0.72952 -7.932389,1.00089 -1.061314,0.27138 -3.66516,0.80093 -5.787788,1.17558 -4.786901,0.84597 -12.204014,3.0521 -21.222987,6.31075 -4.516627,1.63262 -20.690133,9.4925 -21.473484,10.43626 -0.273569,0.3307 -0.703148,0.59987 -0.953644,0.59987 -1.505177,0 -16.600887,9.54963 -18.905894,11.96011 -2.251173,2.35225 -2.188549,7.07213 0.130741,9.87484 2.377519,2.87411 7.917008,2.17865 13.03241,-1.63483 2.175364,-1.62163 5.346123,-3.56956 11.876612,-7.29735 1.768856,-1.00858 3.698119,-2.11274 4.288104,-2.45223 3.58166,-2.0633 15.531882,-7.37866 19.722205,-8.77397 2.005071,-0.66689 4.802282,-1.62054 6.217368,-2.12043 3.282822,-1.158 6.089922,-1.88861 9.860553,-2.56429 1.651299,-0.29665 3.922249,-0.79324 5.048384,-1.10306 5.356011,-1.47662 23.921317,-1.65241 35.110167,-0.33181 2.79061,0.3296 3.08726,-0.34938 2.98948,-6.8469 -0.11317,-7.55335 0.0318,-7.4292 -9.65511,-8.2543 -8.07082,-0.68666 -14.02561,-0.68117 -22.344728,0.0209 m 64.541298,12.63579 c -0.58339,1.08878 -0.56471,5.65815 0.0373,9.55952 0.82401,5.33404 0.71853,5.2022 6.59311,8.15761 1.41509,0.71194 3.18725,1.75018 3.93763,2.3072 0.7504,0.55703 1.49309,1.01188 1.65021,1.01188 0.47792,0 9.14532,5.66804 17.77865,11.62721 1.53375,1.05693 4.52323,2.95432 6.64585,4.2145 2.12263,1.26017 4.82316,2.90378 6.00313,3.65308 4.17714,2.65548 16.66901,8.52567 25.51,11.98757 9.17608,3.59375 18.0775,5.89325 28.51155,7.36548 9.39032,1.32499 31.51093,0.92727 37.30201,-0.6691 0.70644,-0.19555 2.82907,-0.68556 4.71549,-1.08877 9.62873,-2.06221 23.12258,-6.68871 31.84162,-10.91858 1.47771,-0.71743 2.83896,-1.30412 3.02353,-1.30412 0.18568,0 1.10307,-0.56251 2.03804,-1.24918 0.93496,-0.68777 2.67745,-1.62164 3.8717,-2.07539 1.19426,-0.45375 4.47049,-2.23689 7.28088,-3.9607 2.81039,-1.72491 5.78449,-3.53113 6.6096,-4.01454 10.25607,-6.00532 12.74785,-11.97109 6.69638,-16.03287 -3.43004,-2.30172 -6.96556,-1.75677 -11.84584,1.82599 -1.12175,0.82399 -2.16658,1.49748 -2.3226,1.49748 -0.156,0 -1.67436,0.92947 -3.3729,2.0655 -24.57613,16.43169 -52.91519,24.30145 -79.19206,21.98876 -4.7825,-0.42079 -7.48304,-0.87124 -15.86368,-2.6445 -3.89918,-0.8251 -15.4319,-4.64847 -18.80042,-6.23275 -1.7337,-0.81521 -4.33865,-1.98199 -5.78889,-2.59176 -4.66165,-1.96112 -10.22861,-4.90225 -15.28469,-8.07521 -2.71151,-1.70184 -6.08771,-3.81238 -7.5028,-4.69132 -1.41508,-0.87784 -3.44103,-2.24458 -4.50125,-3.03782 -1.06131,-0.79214 -2.07209,-1.45354 -2.24678,-1.46892 -0.17358,-0.0154 -1.95893,-1.19535 -3.96509,-2.62143 -6.78429,-4.82205 -19.81889,-12.14249 -25.85717,-14.5222 -2.77634,-1.09427 -2.94883,-1.09757 -3.50257,-0.0627 M 28.229702,264.88111 c -6.761208,0.50209 -9.217831,2.49068 -9.217831,7.46325 0,3.57397 0.689964,4.81877 3.453116,6.22836 1.623833,0.8284 2.757659,0.84598 55.40807,0.84598 h 53.750173 l 0.87894,-0.96464 c 2.59506,-2.85105 4.20021,-12.91705 2.13581,-13.40266 -1.33818,-0.31422 -102.286073,-0.47682 -106.408278,-0.17029 m 140.707618,0.58669 c -0.34717,0.34718 -0.86135,2.3072 -1.1514,4.39467 -0.28785,2.07209 -0.69326,4.44302 -0.90201,5.26812 -0.53505,2.12592 -0.47681,2.84555 0.29115,3.61352 1.06461,1.06461 193.46241,1.02726 195.26533,-0.0374 4.85721,-2.86972 4.32766,-11.29761 -0.8251,-13.12799 -2.94663,-1.04703 -191.63423,-1.15579 -192.67797,-0.11096"
     id="path2" />
</svg>
